<svg xmlns="http://www.w3.org/2000/svg" viewBox="0 0 400 300" width="400" height="300">
  <defs>
    <clipPath id="fin-clip"><rect width="400" height="300" rx="8"/></clipPath>
  </defs>
  <g clip-path="url(#fin-clip)">
    <!-- Background -->
    <rect width="400" height="300" fill="#F1F5F9"/>

    <!-- Header -->
    <rect width="400" height="44" fill="#FFFFFF"/>
    <line x1="0" y1="44" x2="400" y2="44" stroke="#E2E8F0" stroke-width="1"/>
    <!-- Logo -->
    <rect x="12" y="8" width="28" height="28" rx="6" fill="#0EA5E9"/>
    <text x="26" y="27" font-family="Inter,system-ui,sans-serif" font-size="12" fill="#fff" text-anchor="middle" font-weight="700">N</text>
    <!-- Greeting -->
    <text x="48" y="21" font-family="Inter,system-ui,sans-serif" font-size="10" fill="#0F172A" font-weight="600">Good morning, Alex</text>
    <text x="48" y="34" font-family="Inter,system-ui,sans-serif" font-size="7" fill="#94A3B8">Tuesday, March 11, 2026</text>
    <!-- Date filter -->
    <rect x="280" y="11" width="70" height="22" rx="5" fill="#F1F5F9" stroke="#E2E8F0" stroke-width="0.5"/>
    <text x="315" y="26" font-family="Inter,system-ui,sans-serif" font-size="6" fill="#0F172A" text-anchor="middle">Mar 1 — Mar 11</text>
    <!-- Avatar -->
    <circle cx="374" cy="22" r="14" fill="url(#fin-avatar-grad)"/>
    <defs><linearGradient id="fin-avatar-grad" x1="0" y1="0" x2="1" y2="1"><stop offset="0%" stop-color="#0EA5E9"/><stop offset="100%" stop-color="#6366F1"/></linearGradient></defs>
    <text x="374" y="26" font-family="Inter,system-ui,sans-serif" font-size="8" fill="#fff" text-anchor="middle" font-weight="600">AK</text>

    <!-- KPI Cards Row -->
    <!-- Card 1: Balance -->
    <rect x="12" y="54" width="88" height="58" rx="6" fill="#FFFFFF" stroke="#E2E8F0" stroke-width="0.5"/>
    <rect x="12" y="54" width="88" height="2.5" rx="1" fill="#0EA5E9"/>
    <text x="20" y="69" font-family="Inter,system-ui,sans-serif" font-size="6" fill="#94A3B8" font-weight="500">TOTAL BALANCE</text>
    <text x="20" y="86" font-family="Inter,system-ui,sans-serif" font-size="14" fill="#0F172A" font-weight="700">$284,530</text>
    <text x="20" y="100" font-family="Inter,system-ui,sans-serif" font-size="6" fill="#22C55E" font-weight="600">+4.2%</text>
    <text x="42" y="100" font-family="Inter,system-ui,sans-serif" font-size="5.5" fill="#94A3B8">vs last month</text>

    <!-- Card 2: Income -->
    <rect x="108" y="54" width="88" height="58" rx="6" fill="#FFFFFF" stroke="#E2E8F0" stroke-width="0.5"/>
    <rect x="108" y="54" width="88" height="2.5" rx="1" fill="#22C55E"/>
    <text x="116" y="69" font-family="Inter,system-ui,sans-serif" font-size="6" fill="#94A3B8" font-weight="500">INCOME</text>
    <text x="116" y="86" font-family="Inter,system-ui,sans-serif" font-size="14" fill="#0F172A" font-weight="700">+$42,180</text>
    <text x="116" y="100" font-family="Inter,system-ui,sans-serif" font-size="6" fill="#22C55E" font-weight="600">+12.5%</text>
    <text x="142" y="100" font-family="Inter,system-ui,sans-serif" font-size="5.5" fill="#94A3B8">vs last month</text>

    <!-- Card 3: Expenses -->
    <rect x="204" y="54" width="88" height="58" rx="6" fill="#FFFFFF" stroke="#E2E8F0" stroke-width="0.5"/>
    <rect x="204" y="54" width="88" height="2.5" rx="1" fill="#EF4444"/>
    <text x="212" y="69" font-family="Inter,system-ui,sans-serif" font-size="6" fill="#94A3B8" font-weight="500">EXPENSES</text>
    <text x="212" y="86" font-family="Inter,system-ui,sans-serif" font-size="14" fill="#0F172A" font-weight="700">-$28,640</text>
    <text x="212" y="100" font-family="Inter,system-ui,sans-serif" font-size="6" fill="#EF4444" font-weight="600">-3.8%</text>
    <text x="234" y="100" font-family="Inter,system-ui,sans-serif" font-size="5.5" fill="#94A3B8">vs last month</text>

    <!-- Card 4: Savings -->
    <rect x="300" y="54" width="88" height="58" rx="6" fill="#FFFFFF" stroke="#E2E8F0" stroke-width="0.5"/>
    <rect x="300" y="54" width="88" height="2.5" rx="1" fill="#F59E0B"/>
    <text x="308" y="69" font-family="Inter,system-ui,sans-serif" font-size="6" fill="#94A3B8" font-weight="500">SAVINGS</text>
    <text x="308" y="86" font-family="Inter,system-ui,sans-serif" font-size="14" fill="#0F172A" font-weight="700">$6,230</text>
    <text x="308" y="100" font-family="Inter,system-ui,sans-serif" font-size="6" fill="#22C55E" font-weight="600">+28.4%</text>
    <text x="334" y="100" font-family="Inter,system-ui,sans-serif" font-size="5.5" fill="#94A3B8">vs last month</text>

    <!-- Revenue Chart Panel -->
    <rect x="12" y="122" width="230" height="120" rx="6" fill="#FFFFFF" stroke="#E2E8F0" stroke-width="0.5"/>
    <text x="22" y="140" font-family="Inter,system-ui,sans-serif" font-size="8" fill="#0F172A" font-weight="600">Revenue Overview</text>
    <!-- Legend -->
    <rect x="22" y="147" width="6" height="6" rx="2" fill="#0EA5E9"/>
    <text x="32" y="153" font-family="Inter,system-ui,sans-serif" font-size="5.5" fill="#64748B">Income</text>
    <rect x="60" y="147" width="6" height="6" rx="2" fill="#CBD5E1"/>
    <text x="70" y="153" font-family="Inter,system-ui,sans-serif" font-size="5.5" fill="#64748B">Expenses</text>
    <!-- Bars -->
    <rect x="30" y="196" width="8" height="34" rx="2" fill="#0EA5E9"/>
    <rect x="40" y="206" width="8" height="24" rx="2" fill="#CBD5E1"/>
    <text x="39" y="236" font-family="Inter,system-ui,sans-serif" font-size="5" fill="#94A3B8" text-anchor="middle">Oct</text>

    <rect x="62" y="186" width="8" height="44" rx="2" fill="#0EA5E9"/>
    <rect x="72" y="200" width="8" height="30" rx="2" fill="#CBD5E1"/>
    <text x="71" y="236" font-family="Inter,system-ui,sans-serif" font-size="5" fill="#94A3B8" text-anchor="middle">Nov</text>

    <rect x="94" y="200" width="8" height="30" rx="2" fill="#0EA5E9"/>
    <rect x="104" y="194" width="8" height="36" rx="2" fill="#CBD5E1"/>
    <text x="103" y="236" font-family="Inter,system-ui,sans-serif" font-size="5" fill="#94A3B8" text-anchor="middle">Dec</text>

    <rect x="126" y="178" width="8" height="52" rx="2" fill="#0EA5E9"/>
    <rect x="136" y="204" width="8" height="26" rx="2" fill="#CBD5E1"/>
    <text x="135" y="236" font-family="Inter,system-ui,sans-serif" font-size="5" fill="#94A3B8" text-anchor="middle">Jan</text>

    <rect x="158" y="168" width="8" height="62" rx="2" fill="#0EA5E9"/>
    <rect x="168" y="202" width="8" height="28" rx="2" fill="#CBD5E1"/>
    <text x="167" y="236" font-family="Inter,system-ui,sans-serif" font-size="5" fill="#94A3B8" text-anchor="middle">Feb</text>

    <rect x="190" y="162" width="8" height="68" rx="2" fill="#0EA5E9"/>
    <rect x="200" y="198" width="8" height="32" rx="2" fill="#CBD5E1"/>
    <text x="199" y="236" font-family="Inter,system-ui,sans-serif" font-size="5" fill="#94A3B8" text-anchor="middle">Mar</text>

    <!-- Quick Stats Panel -->
    <rect x="250" y="122" width="138" height="120" rx="6" fill="#FFFFFF" stroke="#E2E8F0" stroke-width="0.5"/>
    <text x="260" y="140" font-family="Inter,system-ui,sans-serif" font-size="8" fill="#0F172A" font-weight="600">Quick Stats</text>
    <!-- Stat rows -->
    <rect x="258" y="148" width="122" height="22" rx="4" fill="#F8FAFC"/>
    <circle cx="270" cy="159" r="6" fill="#EFF6FF"/>
    <text x="282" y="156" font-family="Inter,system-ui,sans-serif" font-size="5" fill="#94A3B8">Active Clients</text>
    <text x="282" y="165" font-family="Inter,system-ui,sans-serif" font-size="8" fill="#0F172A" font-weight="700">1,284</text>
    <text x="365" y="162" font-family="Inter,system-ui,sans-serif" font-size="5.5" fill="#22C55E" font-weight="600" text-anchor="end">+8.3%</text>

    <rect x="258" y="174" width="122" height="22" rx="4" fill="#F8FAFC"/>
    <circle cx="270" cy="185" r="6" fill="#F0FDF4"/>
    <text x="282" y="182" font-family="Inter,system-ui,sans-serif" font-size="5" fill="#94A3B8">Rewards</text>
    <text x="282" y="191" font-family="Inter,system-ui,sans-serif" font-size="8" fill="#0F172A" font-weight="700">$2,840</text>
    <text x="365" y="188" font-family="Inter,system-ui,sans-serif" font-size="5.5" fill="#22C55E" font-weight="600" text-anchor="end">+15.2%</text>

    <rect x="258" y="200" width="122" height="22" rx="4" fill="#F8FAFC"/>
    <circle cx="270" cy="211" r="6" fill="#FFFBEB"/>
    <text x="282" y="208" font-family="Inter,system-ui,sans-serif" font-size="5" fill="#94A3B8">Pending</text>
    <text x="282" y="217" font-family="Inter,system-ui,sans-serif" font-size="8" fill="#0F172A" font-weight="700">$14,320</text>
    <text x="365" y="214" font-family="Inter,system-ui,sans-serif" font-size="5.5" fill="#EF4444" font-weight="600" text-anchor="end">-2.1%</text>

    <!-- Transactions Table Panel -->
    <rect x="12" y="250" width="376" height="44" rx="6" fill="#FFFFFF" stroke="#E2E8F0" stroke-width="0.5"/>
    <text x="22" y="265" font-family="Inter,system-ui,sans-serif" font-size="8" fill="#0F172A" font-weight="600">Recent Transactions</text>
    <!-- Table header -->
    <text x="22" y="278" font-family="Inter,system-ui,sans-serif" font-size="5" fill="#94A3B8" font-weight="600">MERCHANT</text>
    <text x="180" y="278" font-family="Inter,system-ui,sans-serif" font-size="5" fill="#94A3B8" font-weight="600">AMOUNT</text>
    <text x="260" y="278" font-family="Inter,system-ui,sans-serif" font-size="5" fill="#94A3B8" font-weight="600">DATE</text>
    <text x="340" y="278" font-family="Inter,system-ui,sans-serif" font-size="5" fill="#94A3B8" font-weight="600">STATUS</text>
    <line x1="22" y1="282" x2="378" y2="282" stroke="#E2E8F0" stroke-width="0.5"/>
    <!-- Row 1 -->
    <circle cx="28" cy="289" r="4" fill="#DBEAFE"/>
    <text x="36" y="291" font-family="Inter,system-ui,sans-serif" font-size="5.5" fill="#0F172A" font-weight="500">Apple Inc.</text>
    <text x="180" y="291" font-family="Inter,system-ui,sans-serif" font-size="5.5" fill="#0F172A" font-weight="600">-$1,299.00</text>
    <text x="260" y="291" font-family="Inter,system-ui,sans-serif" font-size="5.5" fill="#64748B">Mar 10</text>
    <rect x="334" y="284" width="34" height="11" rx="5" fill="#F0FDF4"/>
    <text x="351" y="292" font-family="Inter,system-ui,sans-serif" font-size="5" fill="#22C55E" font-weight="600" text-anchor="middle">Done</text>
  </g>
</svg>
