<svg xmlns="http://www.w3.org/2000/svg" viewBox="0 0 400 300" width="400" height="300">
  <defs>
    <linearGradient id="ft-green-grad" x1="0" y1="0" x2="0" y2="1">
      <stop offset="0%" stop-color="#00d97e" stop-opacity="0.6"/>
      <stop offset="100%" stop-color="#00d97e" stop-opacity="0.1"/>
    </linearGradient>
  </defs>

  <!-- Background -->
  <rect width="400" height="300" fill="#0f1923"/>

  <!-- Top Nav -->
  <rect width="400" height="28" fill="#1e2e3d"/>
  <rect x="10" y="8" width="12" height="12" rx="3" fill="#2c7be5"/>
  <rect x="28" y="10" width="52" height="8" rx="2" fill="#e3ebf6" opacity="0.8"/>
  <!-- Search -->
  <rect x="130" y="7" width="120" height="14" rx="4" fill="#0f1923" stroke="#2a3f52" stroke-width="0.5"/>
  <rect x="136" y="11" width="40" height="5" rx="1" fill="#6b7f99" opacity="0.4"/>
  <!-- User -->
  <circle cx="370" cy="14" r="8" fill="#2c7be5"/>
  <rect x="340" y="10" width="20" height="6" rx="1" fill="#93a5be" opacity="0.4"/>

  <!-- Sidebar -->
  <rect x="0" y="28" width="68" height="272" fill="#162130"/>
  <rect x="0" y="28" width="68" height="272" fill="none" stroke="#2a3f52" stroke-width="0.5"/>
  <!-- Sidebar items -->
  <rect x="0" y="46" width="68" height="18" fill="rgba(44,123,229,0.15)"/>
  <rect x="0" y="46" width="2" height="18" fill="#2c7be5"/>
  <rect x="12" y="51" width="44" height="6" rx="1" fill="#2c7be5" opacity="0.7"/>
  <rect x="12" y="72" width="44" height="6" rx="1" fill="#6b7f99" opacity="0.4"/>
  <rect x="12" y="88" width="44" height="6" rx="1" fill="#6b7f99" opacity="0.4"/>
  <rect x="12" y="104" width="44" height="6" rx="1" fill="#6b7f99" opacity="0.4"/>
  <rect x="12" y="132" width="30" height="4" rx="1" fill="#6b7f99" opacity="0.2"/>
  <rect x="12" y="144" width="44" height="6" rx="1" fill="#6b7f99" opacity="0.4"/>
  <rect x="12" y="160" width="44" height="6" rx="1" fill="#6b7f99" opacity="0.4"/>

  <!-- Main Content Area -->
  <!-- Title -->
  <rect x="80" y="36" width="70" height="9" rx="2" fill="#e3ebf6" opacity="0.85"/>
  <rect x="80" y="48" width="100" height="5" rx="1" fill="#6b7f99" opacity="0.35"/>

  <!-- KPI Cards Row -->
  <rect x="80" y="62" width="72" height="48" rx="6" fill="#1e2e3d" stroke="#2a3f52" stroke-width="0.5"/>
  <rect x="87" y="68" width="28" height="4" rx="1" fill="#6b7f99" opacity="0.4"/>
  <rect x="87" y="78" width="48" height="9" rx="1" fill="#e3ebf6" opacity="0.9"/>
  <rect x="87" y="94" width="30" height="5" rx="1" fill="#00d97e" opacity="0.6"/>

  <rect x="158" y="62" width="72" height="48" rx="6" fill="#1e2e3d" stroke="#2a3f52" stroke-width="0.5"/>
  <rect x="165" y="68" width="28" height="4" rx="1" fill="#6b7f99" opacity="0.4"/>
  <rect x="165" y="78" width="42" height="9" rx="1" fill="#e3ebf6" opacity="0.9"/>
  <rect x="165" y="94" width="30" height="5" rx="1" fill="#00d97e" opacity="0.6"/>

  <rect x="236" y="62" width="72" height="48" rx="6" fill="#1e2e3d" stroke="#2a3f52" stroke-width="0.5"/>
  <rect x="243" y="68" width="28" height="4" rx="1" fill="#6b7f99" opacity="0.4"/>
  <rect x="243" y="78" width="45" height="9" rx="1" fill="#e3ebf6" opacity="0.9"/>
  <rect x="243" y="94" width="30" height="5" rx="1" fill="#e63757" opacity="0.6"/>

  <rect x="314" y="62" width="72" height="48" rx="6" fill="#1e2e3d" stroke="#2a3f52" stroke-width="0.5"/>
  <rect x="321" y="68" width="28" height="4" rx="1" fill="#6b7f99" opacity="0.4"/>
  <rect x="321" y="78" width="38" height="9" rx="1" fill="#e3ebf6" opacity="0.9"/>
  <rect x="321" y="94" width="30" height="5" rx="1" fill="#f6c343" opacity="0.6"/>

  <!-- Chart Area -->
  <rect x="80" y="118" width="206" height="95" rx="6" fill="#1e2e3d" stroke="#2a3f52" stroke-width="0.5"/>
  <rect x="90" y="125" width="55" height="6" rx="1" fill="#e3ebf6" opacity="0.7"/>
  <!-- Chart bars -->
  <rect x="92" y="183" width="8" height="22" rx="2" fill="#2c7be5" opacity="0.7"/>
  <rect x="104" y="170" width="8" height="35" rx="2" fill="#2c7be5" opacity="0.8"/>
  <rect x="116" y="178" width="8" height="27" rx="2" fill="#2c7be5" opacity="0.7"/>
  <rect x="128" y="162" width="8" height="43" rx="2" fill="#2c7be5" opacity="0.9"/>
  <rect x="140" y="175" width="8" height="30" rx="2" fill="#2c7be5" opacity="0.7"/>
  <rect x="152" y="155" width="8" height="50" rx="2" fill="#2c7be5" opacity="0.9"/>
  <rect x="164" y="168" width="8" height="37" rx="2" fill="#2c7be5" opacity="0.8"/>
  <rect x="176" y="172" width="8" height="33" rx="2" fill="#2c7be5" opacity="0.7"/>
  <rect x="188" y="160" width="8" height="45" rx="2" fill="#2c7be5" opacity="0.85"/>
  <rect x="200" y="176" width="8" height="29" rx="2" fill="#2c7be5" opacity="0.7"/>
  <rect x="212" y="153" width="8" height="52" rx="2" fill="#2c7be5"/>
  <rect x="224" y="166" width="8" height="39" rx="2" fill="#2c7be5" opacity="0.8"/>
  <rect x="236" y="180" width="8" height="25" rx="2" fill="#2c7be5" opacity="0.7"/>
  <rect x="248" y="170" width="8" height="35" rx="2" fill="#2c7be5" opacity="0.8"/>
  <rect x="260" y="158" width="8" height="47" rx="2" fill="#2c7be5" opacity="0.9"/>

  <!-- Donut Chart -->
  <rect x="292" y="118" width="94" height="95" rx="6" fill="#1e2e3d" stroke="#2a3f52" stroke-width="0.5"/>
  <circle cx="339" cy="162" r="28" fill="none" stroke="#2c7be5" stroke-width="8" stroke-dasharray="70 106" transform="rotate(-90 339 162)"/>
  <circle cx="339" cy="162" r="28" fill="none" stroke="#00d97e" stroke-width="8" stroke-dasharray="42 134" stroke-dashoffset="-70" transform="rotate(-90 339 162)"/>
  <circle cx="339" cy="162" r="28" fill="none" stroke="#f6c343" stroke-width="8" stroke-dasharray="35 141" stroke-dashoffset="-112" transform="rotate(-90 339 162)"/>
  <circle cx="339" cy="162" r="28" fill="none" stroke="#e63757" stroke-width="8" stroke-dasharray="29 147" stroke-dashoffset="-147" transform="rotate(-90 339 162)"/>
  <circle cx="339" cy="162" r="18" fill="#1e2e3d"/>

  <!-- Table -->
  <rect x="80" y="220" width="306" height="72" rx="6" fill="#1e2e3d" stroke="#2a3f52" stroke-width="0.5"/>
  <rect x="90" y="226" width="60" height="6" rx="1" fill="#e3ebf6" opacity="0.7"/>
  <!-- Table header -->
  <line x1="80" y1="238" x2="386" y2="238" stroke="#2a3f52" stroke-width="0.5"/>
  <rect x="90" y="241" width="30" height="4" rx="1" fill="#6b7f99" opacity="0.3"/>
  <rect x="160" y="241" width="20" height="4" rx="1" fill="#6b7f99" opacity="0.3"/>
  <rect x="240" y="241" width="25" height="4" rx="1" fill="#6b7f99" opacity="0.3"/>
  <rect x="330" y="241" width="25" height="4" rx="1" fill="#6b7f99" opacity="0.3"/>
  <!-- Table rows -->
  <rect x="90" y="252" width="50" height="5" rx="1" fill="#e3ebf6" opacity="0.5"/>
  <rect x="160" y="252" width="30" height="5" rx="1" fill="#6b7f99" opacity="0.3"/>
  <rect x="240" y="252" width="35" height="5" rx="1" fill="#00d97e" opacity="0.5"/>
  <rect x="330" y="251" width="32" height="8" rx="4" fill="rgba(0,217,126,0.12)"/>
  <rect x="335" y="253" width="22" height="4" rx="1" fill="#00d97e" opacity="0.6"/>

  <rect x="90" y="265" width="55" height="5" rx="1" fill="#e3ebf6" opacity="0.5"/>
  <rect x="160" y="265" width="25" height="5" rx="1" fill="#6b7f99" opacity="0.3"/>
  <rect x="240" y="265" width="30" height="5" rx="1" fill="#e63757" opacity="0.5"/>
  <rect x="330" y="264" width="32" height="8" rx="4" fill="rgba(246,195,67,0.12)"/>
  <rect x="335" y="266" width="22" height="4" rx="1" fill="#f6c343" opacity="0.6"/>

  <rect x="90" y="278" width="45" height="5" rx="1" fill="#e3ebf6" opacity="0.5"/>
  <rect x="160" y="278" width="35" height="5" rx="1" fill="#6b7f99" opacity="0.3"/>
  <rect x="240" y="278" width="28" height="5" rx="1" fill="#00d97e" opacity="0.5"/>
  <rect x="330" y="277" width="32" height="8" rx="4" fill="rgba(0,217,126,0.12)"/>
  <rect x="335" y="279" width="22" height="4" rx="1" fill="#00d97e" opacity="0.6"/>
</svg>
